:version 1.10
:name ASF
:units
  mass 1
  length 1
  angle deg
:documentation
  ASF file generated by Kaydara
:root
  axis xyz
  order  tx ty tz rx ry rz
  position 0 0 0
  orientation 0 0 0
:bonedata
  begin
    id 1
    name lfemurDummy
    direction 0.61522 -0.761478 0.204097
    length 5.68318
    axis 0 -0 0 xyz
  end
  begin
    id 2
    name lfemur
    direction 0.34202 -0.939693 -5.84747e-008
    length 16.9147
    axis 0 -0 20 xyz
    dof rx ry rz
    limits( -inf , inf )
( -inf , inf )
( -inf , inf )

  end
  begin
    id 3
    name ltibia
    direction 0.34202 -0.939693 1.20839e-009
    length 18.0532
    axis 0 -0 20 xyz
    dof rz ry rx
    limits( -inf , inf )
( -inf , inf )
( -inf , inf )

  end
  begin
    id 4
    name lfoot
    direction 0.0841971 -0.23133 0.969225
    length 5.23822
    axis -90 7.62852e-016 20 xyz
    dof ry rx rz
    limits( -inf , inf )
( -inf , inf )
( -inf , inf )

  end
  begin
    id 5
    name ltoes
    direction 0 0 0
    length 0
    axis 0 0 0 xyz
    dof rz ry rx
    limits( -inf , inf )
( -inf , inf )
( -inf , inf )

  end
  begin
    id 6
    name rfemurDummy
    direction -0.625247 -0.75382 0.202044
    length 5.74091
    axis 0 -0 0 xyz
  end
  begin
    id 7
    name rfemur
    direction -0.34202 -0.939693 -1.47013e-008
    length 16.4922
    axis 0 -0 -20 xyz
    dof rx ry rz
    limits( -inf , inf )
( -inf , inf )
( -inf , inf )

  end
  begin
    id 8
    name rtibia
    direction -0.34202 -0.939693 -7.74345e-010
    length 18.2421
    axis 0 -0 -20 xyz
    dof rz ry rx
    limits( -inf , inf )
( -inf , inf )
( -inf , inf )

  end
  begin
    id 9
    name rfoot
    direction -0.124331 -0.341598 0.931586
    length 5.45787
    axis -90 -7.62852e-016 -20 xyz
    dof ry rx rz
    limits( -inf , inf )
( -inf , inf )
( -inf , inf )

  end
  begin
    id 10
    name rtoes
    direction 0 0 0
    length 0
    axis 0 0 0 xyz
    dof rz ry rx
    limits( -inf , inf )
( -inf , inf )
( -inf , inf )

  end
  begin
    id 11
    name lowerbackDummy
    direction 0 0 0
    length 0
    axis 0 -0 0 xyz
  end
  begin
    id 12
    name lowerback
    direction -0.0218484 0.994884 -0.0986304
    length 4.45607
    axis 0 -0 0 xyz
    dof rx ry rz
    limits( -inf , inf )
( -inf , inf )
( -inf , inf )

  end
  begin
    id 13
    name upperback
    direction -0.00973057 0.999717 -0.0217111
    length 4.47449
    axis 0 -0 0 xyz
    dof rx ry rz
    limits( -inf , inf )
( -inf , inf )
( -inf , inf )

  end
  begin
    id 14
    name thorax
    direction -0.000928171 0.999699 0.0245198
    length 4.50973
    axis 0 -0 0 xyz
    dof rx ry rz
    limits( -inf , inf )
( -inf , inf )
( -inf , inf )

  end
  begin
    id 15
    name rclavicle
    direction -0.9009 0.425937 -0.0834055
    length 7.28587
    axis 0 -0 0 xyz
    dof rx ry rz
    limits( -inf , inf )
( -inf , inf )
( -inf , inf )

  end
  begin
    id 16
    name rhumerus
    direction -1 -2.23604e-007 -1.42637e-007
    length 13.5704
    axis 180 30 90 xyz
    dof rx ry rz
    limits( -inf , inf )
( -inf , inf )
( -inf , inf )

  end
  begin
    id 17
    name rradius
    direction -1 5.68281e-008 -4.4952e-007
    length 8.06782
    axis 180 30 90 xyz
    dof rz ry rx
    limits( -inf , inf )
( -inf , inf )
( -inf , inf )

  end
  begin
    id 18
    name rwrist
    direction -1 1.51393e-007 1.38143e-007
    length 4.03391
    axis -90 -90 0 xyz
    dof rz rx ry
    limits( -inf , inf )
( -inf , inf )
( -inf , inf )

  end
  begin
    id 19
    name rthumb
    direction 0 0 0
    length 0
    axis 0 0 0 xyz
    dof ry rx rz
    limits( -inf , inf )
( -inf , inf )
( -inf , inf )

  end
  begin
    id 20
    name rhand
    direction -1 -3.34077e-007 -5.59631e-007
    length 1.29744
    axis -90 -90 0 xyz
    dof ry rx rz
    limits( -inf , inf )
( -inf , inf )
( -inf , inf )

  end
  begin
    id 21
    name rfingers
    direction 0 0 0
    length 0
    axis 0 0 0 xyz
    dof rz ry rx
    limits( -inf , inf )
( -inf , inf )
( -inf , inf )

  end
  begin
    id 22
    name lclavicle
    direction 0.940017 0.332249 -0.0773232
    length 8.29589
    axis 0 -0 0 xyz
    dof rx ry rz
    limits( -inf , inf )
( -inf , inf )
( -inf , inf )

  end
  begin
    id 23
    name lhumerus
    direction 1 7.41158e-008 -1.44768e-008
    length 12.0042
    axis 180 -30 -90 xyz
    dof rx ry rz
    limits( -inf , inf )
( -inf , inf )
( -inf , inf )

  end
  begin
    id 24
    name lradius
    direction 1 -1.32972e-007 3.10821e-007
    length 8.1902
    axis 180 -30 -90 xyz
    dof rz ry rx
    limits( -inf , inf )
( -inf , inf )
( -inf , inf )

  end
  begin
    id 25
    name lwrist
    direction 1 3.08957e-007 4.01394e-007
    length 4.09509
    axis -90 90 0 xyz
    dof rz rx ry
    limits( -inf , inf )
( -inf , inf )
( -inf , inf )

  end
  begin
    id 26
    name lthumb
    direction 0 0 0
    length 0
    axis 0 0 0 xyz
    dof ry rx rz
    limits( -inf , inf )
( -inf , inf )
( -inf , inf )

  end
  begin
    id 27
    name lhand
    direction 1 -1.64125e-007 -6.99514e-007
    length 1.37229
    axis -90 90 0 xyz
    dof ry rx rz
    limits( -inf , inf )
( -inf , inf )
( -inf , inf )

  end
  begin
    id 28
    name lfingers
    direction 0 0 0
    length 0
    axis 0 0 0 xyz
    dof rz ry rx
    limits( -inf , inf )
( -inf , inf )
( -inf , inf )

  end
  begin
    id 29
    name lowerneck
    direction -0.030798 0.998024 0.0547665
    length 3.93918
    axis 0 -0 0 xyz
    dof rx ry rz
    limits( -inf , inf )
( -inf , inf )
( -inf , inf )

  end
  begin
    id 30
    name upperneck
    direction 0.0531588 0.996611 -0.0627736
    length 3.95491
    axis 0 -0 0 xyz
    dof rx ry rz
    limits( -inf , inf )
( -inf , inf )
( -inf , inf )

  end
  begin
    id 31
    name head
    direction 0 0 0
    length 0
    axis 0 0 0 xyz
    dof rx ry rz
    limits( -inf , inf )
( -inf , inf )
( -inf , inf )

  end
:hierarchy
  begin
    root lfemurDummy rfemurDummy lowerbackDummy
    lfemurDummy lfemur
    lfemur ltibia
    ltibia lfoot
    lfoot ltoes
    rfemurDummy rfemur
    rfemur rtibia
    rtibia rfoot
    rfoot rtoes
    lowerbackDummy lowerback
    lowerback upperback
    upperback thorax
    thorax rclavicle lclavicle lowerneck
    rclavicle rhumerus
    rhumerus rradius
    rradius rwrist
    rwrist rthumb rhand
    rhand rfingers
    lclavicle lhumerus
    lhumerus lradius
    lradius lwrist
    lwrist lthumb lhand
    lhand lfingers
    lowerneck upperneck
    upperneck head
  end

:SAMPLES-PER-SECOND 30
:FULLY-SPECIFIED
:DEGREES
73
root  4.031333398 40.48355583 -1.022359987 -9.416992188 -36.73699951 4.190002441
lowerback  6.584420204 -0.3287400007 -1.332419991
upperback  2.598750114 -0.527338028 1.020740032
thorax  -0.9917050004 -0.2841050029 1.836429954
lowerneck  -10.0656004 4.00868988 -3.197540045
upperneck  13.67080021 4.908090115 6.806069851
head  5.512829781 2.719099998 3.02876997
lclavicle  0 -9.442270133e-015 7.951389973e-016
lhumerus  3.368309975 -24.45100021 86.71080017
lradius  2.554802706e-031 -2.437586341e-031 136.3450012
lwrist  -1.059337512e-030 -0 4.532060146
lhand  -1.496451383e-031 -27.76390076 20.11240005
lfingers  90 7.125020027 -90
lthumb  89.89689403 5.08795885 91.16245106
rclavicle  0 -9.442270133e-015 7.951389973e-016
rhumerus  8.667900085 21.77820015 -77.71949768
rradius  -2.585609751e-031 2.404883833e-031 137.0740051
rwrist  7.062250077e-031 -1.765562519e-031 -8.233039856
rhand  -7.920061211e-032 -33.2840004 9.303460121
rfingers  -90 -7.125020027 -90
rthumb  -92.93752616 -24.25625642 -97.11982154
rfemur  -16.10479927 21.20229912 14.9073
rtibia  -0 0 51.38270187
rfoot  -4.546918859e-032 -13.89280033 5.581920147
rtoes  5.373923086 19.29304026 -105.8922705
lfemur  -11.12629986 9.30161953 -20.77249908
ltibia  -0 0 61.91719818
lfoot  -0 -0.7358989716 8.544239998
ltoes  -4.250644065 -19.5611806 -102.515957
74
root  4.087755624 40.71800052 -0.9501733179 -9.348999023 -37.72399902 4.046020508
lowerback  6.612030029 -0.5164120197 -0.8976749778
upperback  2.338370085 -0.7387599945 1.665279984
thorax  -1.262989998 -0.3862369955 2.274049997
lowerneck  -9.825130463 4.365320206 -4.236810207
upperneck  14.38479996 5.550680161 6.661369801
head  5.631269932 2.964550018 3.206209898
lclavicle  0 -9.442270133e-015 7.951389973e-016
lhumerus  2.476490021 -23.14380074 87.67140198
lradius  2.564821047e-031 -2.427042858e-031 136.5809937
lwrist  -7.062250077e-031 -0 3.81855011
lhand  -1.496451383e-031 -27.76390076 20.11240005
lfingers  90 7.125020027 -90
lthumb  89.89689403 5.08795885 91.16245106
rclavicle  0 -9.442270133e-015 7.951389973e-016
rhumerus  8.284310341 23.98520088 -77.65650177
rradius  -2.578799668e-031 2.412184965e-031 136.9120026
rwrist  7.062250077e-031 -1.765562519e-031 -8.428150177
rhand  -7.920061211e-032 -33.2840004 9.303460121
rfingers  -90 -7.125020027 -90
rthumb  -92.93752616 -24.25625642 -97.11982154
rfemur  -15.68770027 21.81010056 14.87230015
rtibia  -0 0 50.10250092
rfoot  -4.52315739e-032 -12.61849976 6.008259773
rtoes  5.373923086 19.29304026 -105.8922705
lfemur  -11.7116003 9.559960365 -20.54770088
ltibia  -0 0 61.89220047
lfoot  -0 1.479809999 7.930379868
ltoes  -4.250644065 -19.5611806 -102.515957
75
root  4.142266747 40.93977861 -0.8783733751 -9.106994629 -38.63499451 3.653991699
lowerback  6.511970043 -0.2401439995 0.1571989954
upperback  2.348210096 -0.3060480058 1.684479952
thorax  -1.223029971 -0.1679479927 1.666839957
lowerneck  -10.19480038 4.267739773 -3.425800085
upperneck  14.94439983 5.34389019 6.211619854
head  5.920959949 2.875710011 2.947149992
lclavicle  0 -9.442270133e-015 7.951389973e-016
lhumerus  2.701509953 -23.40629959 87.54180145
lradius  2.57260227e-031 -2.418793418e-031 136.7649994
lwrist  -3.531125038e-031 -1.765562519e-031 3.874109983
lhand  -1.496451383e-031 -27.76390076 20.11240005
lfingers  90 7.125020027 -90
lthumb  89.89689403 5.08795885 91.16245106
rclavicle  0 -9.442270133e-015 7.951389973e-016
rhumerus  7.918260098 24.30550003 -78.09329987
rradius  -2.57483835e-031 2.416412943e-031 136.8179932
rwrist  7.062250077e-031 -1.765562519e-031 -8.555720329
rhand  -7.920061211e-032 -33.2840004 9.303460121
rfingers  -90 -7.125020027 -90
rthumb  -92.93752616 -24.25625642 -97.11982154
rfemur  -15.30819988 22.35519981 15.05060005
rtibia  -0 0 48.95750046
rfoot  -4.506898883e-032 -11.65929985 6.266520023
rtoes  5.373923086 19.29304026 -105.8922705
lfemur  -12.15639973 9.642140388 -20.11580086
ltibia  -0 0 61.42570114
lfoot  4.41859669e-032 2.640209913 6.465640068
ltoes  -4.250644065 -19.5611806 -102.515957
76
root  4.19006648 41.12822165 -0.8117799684 -8.859985352 -39.5 3.361022949
lowerback  6.349359989 0.06820379943 1.154160023
upperback  2.384520054 0.1592720002 1.54974997
thorax  -1.104959965 0.06774570048 0.9334279895
lowerneck  -10.80589962 4.181119919 -2.358020067
upperneck  15.58609962 5.085319996 5.86371994
head  6.284589767 2.788310051 2.681469917
lclavicle  0 -9.442270133e-015 7.951389973e-016
lhumerus  3.176719904 -23.92860031 86.99500275
lradius  2.582543696e-031 -2.408176093e-031 137.0010071
lwrist  -7.062250077e-031 -0 3.933199883
lhand  -1.496451383e-031 -27.76390076 20.11240005
lfingers  90 7.125020027 -90
lthumb  89.89689403 5.08795885 91.16245106
rclavicle  0 -9.442270133e-015 7.951389973e-016
rhumerus  7.691760063 24.41990089 -78.67489624
rradius  -2.567403743e-031 2.424310636e-031 136.6419983
rwrist  7.062250077e-031 -0 -8.556360245
rhand  -7.920061211e-032 -33.2840004 9.303460121
rfingers  -90 -7.125020027 -90
rthumb  -92.93752616 -24.25625642 -97.11982154
rfemur  -15.06330013 22.8567009 15.14229965
rtibia  -0 0 48.00659943
rfoot  -4.49744565e-032 -11.06050014 6.382380009
rtoes  5.373923086 19.29304026 -105.8922705
lfemur  -12.57699966 9.527879715 -19.80089951
ltibia  -0 0 60.56620026
lfoot  4.420011789e-032 3.011869907 4.008609772
ltoes  -4.250644065 -19.5611806 -102.515957
